<svg width="317" height="112" viewBox="0 0 317 112" fill="none" xmlns="http://www.w3.org/2000/svg">
<path d="M46.9966 22.2422L56.1196 25.7754L55.3111 30.4688L41.7056 24.0527L42.4263 19.9043L58.2642 13.4883L57.3501 18.6387L46.9966 22.2422ZM84.5549 11.6777H76.9611L73.2697 33H68.1193L71.8107 11.6777H64.3049L65.0607 7.40625H85.3107L84.5549 11.6777ZM99.6131 27.7266H90.6834L88.0467 33H82.369L96.0448 7.40625H100.808L105.678 33H100.422L99.6131 27.7266ZM92.7928 23.4551H98.9627L97.5213 13.9277L92.7928 23.4551ZM131.23 33H126.238L119.119 15.9316L116.148 33H110.998L115.445 7.40625H120.419L127.556 24.5098L130.527 7.40625H135.66L131.23 33ZM158.839 33H153.689L155.587 22.0312H145.655L143.739 33H138.589L143.036 7.40625H148.187L146.376 17.7773H156.325L158.118 7.40625H163.269L158.839 33ZM166.181 33L170.628 7.40625L177.975 7.42383C179.698 7.45898 181.245 7.85156 182.616 8.60156C183.999 9.33984 185.118 10.4063 185.973 11.8008C186.829 13.1953 187.345 14.7656 187.52 16.5117C187.614 17.5312 187.602 18.5742 187.485 19.6406L187.362 20.5723C186.847 24.3223 185.37 27.334 182.932 29.6074C180.507 31.8691 177.559 33 174.091 33H166.181ZM175.04 11.6777L172.069 28.7637L174.214 28.7812C176.581 28.7812 178.479 27.9141 179.909 26.1797C181.35 24.4453 182.177 21.8262 182.388 18.3223L182.423 17.7598C182.458 15.8262 182.089 14.3438 181.315 13.3125C180.542 12.2812 179.388 11.7422 177.852 11.6953L175.04 11.6777ZM208.696 21.9082H198.887L197.692 28.7637H209.223L208.485 33H191.803L196.25 7.40625H212.897L212.141 11.6777H200.663L199.59 17.7773H209.434L208.696 21.9082ZM224.651 26.6016L233.264 7.40625H239.17L226.531 33H221.153L216.547 7.40625H222.084L224.651 26.6016ZM241.115 35.1973H237.213L251.17 7.40625H255.09L241.115 35.1973ZM267.757 21.9785L258.441 18.4102L259.267 13.752L273.031 20.168L272.31 24.2988L256.296 30.7324L257.21 25.5996L267.757 21.9785Z" fill="black"/>
<path d="M41.2407 54.375C41.4594 54.375 41.6626 54.4609 41.8501 54.6328C42.0532 54.7891 42.1548 55 42.1548 55.2656C42.1548 55.5938 42.0063 55.8438 41.7094 56.0156C41.6938 56.0312 41.4751 56.1797 41.0532 56.4609C40.6469 56.7422 40.1626 57.1797 39.6001 57.7734C40.7719 57.9141 41.9673 57.9844 43.186 57.9844C44.3735 57.9844 45.4516 57.9062 46.4204 57.75C47.4048 57.5781 48.2798 57.3516 49.0454 57.0703C49.8266 56.7734 50.4985 56.4297 51.061 56.0391C51.6391 55.6484 52.1157 55.2188 52.4907 54.75C52.5844 54.6406 52.6938 54.5547 52.8188 54.4922C52.9438 54.4141 53.0766 54.375 53.2173 54.375C53.4673 54.375 53.6704 54.4688 53.8266 54.6562C53.9985 54.8438 54.0844 55.0469 54.0844 55.2656C54.0844 55.4844 54.0298 55.6562 53.9204 55.7812C53.5454 56.2812 53.0454 56.7734 52.4204 57.2578C51.7954 57.7266 51.0376 58.1484 50.1469 58.5234C49.2563 58.8984 48.2329 59.2031 47.0766 59.4375C45.9204 59.6562 44.6313 59.7656 43.2094 59.7656C42.3969 59.7656 41.5844 59.7344 40.7719 59.6719C39.9594 59.5938 39.1469 59.4922 38.3344 59.3672C37.9751 59.8828 37.6391 60.4609 37.3266 61.1016C37.0298 61.7422 36.7876 62.4453 36.6001 63.2109C36.2719 64.5234 36.0844 65.9141 36.0376 67.3828C36.0063 68.8516 35.9751 70.3516 35.9438 71.8828C35.9282 73.3984 35.8579 74.9141 35.7329 76.4297C35.6079 77.9297 35.311 79.3828 34.8423 80.7891C34.4829 81.8516 33.9985 82.8359 33.3891 83.7422C32.7954 84.6484 32.061 85.4375 31.186 86.1094C30.3266 86.7656 29.3344 87.2812 28.2094 87.6562C27.1001 88.0469 25.8501 88.2422 24.4594 88.2422C22.1782 88.2422 20.1157 87.7891 18.2719 86.8828C16.4282 85.9766 14.8266 84.5469 13.4673 82.5938C13.4204 82.5156 13.3579 82.4062 13.2798 82.2656C13.2016 82.125 13.1626 81.9844 13.1626 81.8438C13.1626 81.625 13.2407 81.4141 13.3969 81.2109C13.5532 81.0078 13.7719 80.9062 14.0532 80.9062C14.2251 80.9062 14.3813 80.9531 14.5219 81.0469C14.6626 81.125 14.7719 81.2266 14.8501 81.3516C15.9907 83.1016 17.3266 84.3984 18.8579 85.2422C20.3891 86.0703 22.2485 86.4844 24.436 86.4844C25.5923 86.4844 26.6313 86.3438 27.5532 86.0625C28.4751 85.7656 29.2876 85.3516 29.9907 84.8203C30.7094 84.2734 31.3266 83.6094 31.8423 82.8281C32.3579 82.0469 32.7876 81.1562 33.1313 80.1562C33.5063 79.0625 33.7407 77.8047 33.8344 76.3828C33.9438 74.9453 34.0141 73.4531 34.0454 71.9062C34.0766 70.3438 34.1313 68.7812 34.2094 67.2188C34.3032 65.6562 34.5219 64.1797 34.8657 62.7891C35.0376 62.0547 35.2641 61.375 35.5454 60.75C35.8266 60.125 36.1235 59.5469 36.436 59.0156C34.3423 58.5938 32.2563 58.0625 30.1782 57.4219C28.1157 56.7656 26.0923 56.1406 24.1079 55.5469C22.1391 54.9375 20.2329 54.4141 18.3891 53.9766C16.561 53.5391 14.8344 53.3203 13.2094 53.3203C11.7251 53.3203 10.3501 53.5312 9.08444 53.9531C7.83444 54.375 6.7485 54.9688 5.82663 55.7344C4.92038 56.5 4.20944 57.4219 3.69382 58.5C3.19382 59.5781 2.94382 60.7734 2.94382 62.0859C2.94382 63.0391 3.10788 63.9141 3.436 64.7109C3.77975 65.5078 4.2485 66.2031 4.84225 66.7969C5.436 67.375 6.13913 67.8281 6.95163 68.1562C7.76413 68.4844 8.65475 68.6484 9.6235 68.6484C10.6391 68.6484 11.5454 68.5 12.3423 68.2031C13.1391 67.8906 13.8423 67.5078 14.4516 67.0547C15.061 66.6016 15.5766 66.1094 15.9985 65.5781C16.436 65.0469 16.7876 64.5547 17.0532 64.1016C17.3344 63.6328 17.5376 63.25 17.6626 62.9531C17.8032 62.6406 17.8735 62.4844 17.8735 62.4844C17.936 62.3125 18.0454 62.1719 18.2016 62.0625C18.3579 61.9531 18.5298 61.8984 18.7173 61.8984C18.9829 61.8984 19.1938 61.9922 19.3501 62.1797C19.5219 62.3516 19.6079 62.5547 19.6079 62.7891C19.6079 62.8359 19.6001 62.8828 19.5844 62.9297C19.5844 62.9609 19.5766 63 19.561 63.0469C19.5454 63.0781 19.4594 63.2891 19.3032 63.6797C19.1469 64.0547 18.9048 64.5156 18.5766 65.0625C18.2485 65.5938 17.8266 66.1719 17.311 66.7969C16.7954 67.4219 16.1704 68.0078 15.436 68.5547C14.7016 69.0859 13.8501 69.5312 12.8813 69.8906C11.9282 70.2344 10.8344 70.4062 9.60007 70.4062C8.41257 70.4062 7.30319 70.1953 6.27194 69.7734C5.25632 69.3516 4.36569 68.7734 3.60007 68.0391C2.85007 67.3047 2.25632 66.4297 1.81882 65.4141C1.39694 64.3984 1.186 63.2891 1.186 62.0859C1.186 60.4922 1.49069 59.0547 2.10007 57.7734C2.70944 56.4766 3.55319 55.3672 4.63132 54.4453C5.70944 53.5234 6.98288 52.8125 8.45163 52.3125C9.92038 51.8125 11.5141 51.5625 13.2329 51.5625C14.4829 51.5625 15.7407 51.6719 17.0063 51.8906C18.2719 52.1094 19.5532 52.3984 20.8501 52.7578C22.1626 53.1172 23.4907 53.5156 24.8344 53.9531C26.1782 54.3906 27.5376 54.8359 28.9126 55.2891C30.3032 55.7266 31.7094 56.1406 33.1313 56.5312C34.5688 56.9219 36.0298 57.2422 37.5141 57.4922C37.9048 57.0078 38.2876 56.5781 38.6626 56.2031C39.0532 55.8281 39.3969 55.5234 39.6938 55.2891C40.0063 55.0391 40.2641 54.8516 40.4673 54.7266C40.6704 54.5859 40.7876 54.5078 40.8188 54.4922C40.9751 54.4141 41.1157 54.375 41.2407 54.375ZM50.7481 68.6016C50.7481 69.1953 50.5371 69.7031 50.1153 70.125C49.709 70.5312 49.209 70.7344 48.6153 70.7344C48.0215 70.7344 47.5137 70.5312 47.0918 70.125C46.6856 69.7031 46.4824 69.1953 46.4824 68.6016C46.4824 68.3047 46.5371 68.0312 46.6465 67.7812C46.7559 67.5156 46.9043 67.2891 47.0918 67.1016C47.2949 66.8984 47.5215 66.7422 47.7715 66.6328C48.0371 66.5234 48.3184 66.4688 48.6153 66.4688C48.9121 66.4688 49.1856 66.5234 49.4356 66.6328C49.7012 66.7422 49.9278 66.8984 50.1153 67.1016C50.3184 67.2891 50.4746 67.5156 50.584 67.7812C50.6934 68.0312 50.7481 68.3047 50.7481 68.6016ZM46.9512 82.3359C46.9512 80.0859 47.0918 77.8438 47.3731 75.6094C47.4043 75.3906 47.4981 75.2031 47.6543 75.0469C47.8262 74.875 48.0449 74.7891 48.3106 74.7891C48.5449 74.7891 48.7403 74.8828 48.8965 75.0703C49.0528 75.2422 49.1309 75.4453 49.1309 75.6797C49.1309 75.7734 49.1074 76.0547 49.0606 76.5234C49.0293 76.9922 48.9824 77.5547 48.9199 78.2109C48.8731 78.8516 48.8262 79.5391 48.7793 80.2734C48.7481 80.9922 48.7324 81.6562 48.7324 82.2656C48.7324 83.0938 48.8106 83.7656 48.9668 84.2812C49.1387 84.7812 49.3496 85.1719 49.5996 85.4531C49.8653 85.7344 50.1387 85.9219 50.4199 86.0156C50.7168 86.1094 50.9981 86.1562 51.2637 86.1562C51.7012 86.1562 52.1543 86 52.6231 85.6875C53.0918 85.375 53.5684 84.9375 54.0528 84.375C54.5528 83.8125 55.0528 83.1406 55.5528 82.3594C56.0528 81.5625 56.5449 80.6797 57.0293 79.7109C57.1074 79.5547 57.2168 79.4375 57.3574 79.3594C57.4981 79.2656 57.6543 79.2188 57.8262 79.2188C58.0762 79.2188 58.2793 79.3125 58.4356 79.5C58.6074 79.6875 58.6934 79.8906 58.6934 80.1094C58.6934 80.2656 58.6621 80.3984 58.5996 80.5078C58.4121 80.8672 58.1778 81.3047 57.8965 81.8203C57.6153 82.3359 57.2949 82.8672 56.9356 83.4141C56.5762 83.9609 56.1778 84.5078 55.7403 85.0547C55.3184 85.5859 54.8653 86.0703 54.3809 86.5078C53.8965 86.9297 53.3887 87.2734 52.8574 87.5391C52.3262 87.8047 51.7871 87.9375 51.2403 87.9375C50.5371 87.9375 49.9199 87.7891 49.3887 87.4922C48.8574 87.1953 48.4043 86.7969 48.0293 86.2969C47.6699 85.7969 47.3965 85.2109 47.209 84.5391C47.0371 83.8516 46.9512 83.1172 46.9512 82.3359ZM49.4356 68.6016C49.4356 68.3828 49.3496 68.1953 49.1778 68.0391C49.0215 67.8672 48.834 67.7812 48.6153 67.7812C48.3965 67.7812 48.209 67.8672 48.0528 68.0391C47.8965 68.1953 47.8184 68.3828 47.8184 68.6016C47.8184 68.8203 47.8965 69.0078 48.0528 69.1641C48.209 69.3203 48.3965 69.3984 48.6153 69.3984C48.834 69.3984 49.0215 69.3203 49.1778 69.1641C49.3496 69.0078 49.4356 68.8203 49.4356 68.6016ZM63.4664 84.4219C63.7945 84.875 64.2164 85.2422 64.732 85.5234C65.2476 85.7891 65.8804 85.9219 66.6304 85.9219C67.3961 85.9219 68.0914 85.7422 68.7164 85.3828C69.3414 85.0078 69.9117 84.5234 70.4273 83.9297C70.9429 83.3359 71.4039 82.6719 71.8101 81.9375C72.2164 81.2031 72.5836 80.4688 72.9117 79.7344C72.9898 79.5625 73.0992 79.4375 73.2398 79.3594C73.3804 79.2656 73.5367 79.2188 73.7086 79.2188C73.9742 79.2188 74.1851 79.3125 74.3414 79.5C74.5133 79.6875 74.5992 79.8906 74.5992 80.1094C74.5992 80.1875 74.5914 80.2578 74.5758 80.3203C74.5601 80.3672 74.5367 80.4219 74.5054 80.4844C73.4273 82.8594 72.2476 84.6484 70.9664 85.8516C69.7008 87.0547 68.2633 87.6719 66.6539 87.7031C65.6226 87.7031 64.732 87.5 63.982 87.0938C63.232 86.7031 62.6148 86.1953 62.1304 85.5703C61.6461 84.9297 61.2867 84.2109 61.0523 83.4141C60.8179 82.6172 60.7008 81.8203 60.7008 81.0234C60.7008 80.2266 60.7945 79.4922 60.982 78.8203C61.1851 78.1484 61.4664 77.5625 61.8258 77.0625C62.2008 76.5625 62.6383 76.1719 63.1383 75.8906C63.6539 75.6094 64.2164 75.4688 64.8258 75.4688C65.1851 75.4688 65.5367 75.5469 65.8804 75.7031C66.2398 75.8438 66.5601 76.0547 66.8414 76.3359C67.1226 76.6016 67.3492 76.9297 67.5211 77.3203C67.6929 77.7109 67.7789 78.1562 67.7789 78.6562C67.7789 79.2969 67.6695 79.8984 67.4508 80.4609C67.232 81.0234 66.9273 81.5469 66.5367 82.0312C66.1617 82.5156 65.7086 82.9609 65.1773 83.3672C64.6461 83.7734 64.0758 84.125 63.4664 84.4219ZM62.7633 82.8984C63.2476 82.6953 63.6851 82.4375 64.0758 82.125C64.482 81.8125 64.8258 81.4688 65.107 81.0938C65.3883 80.7188 65.607 80.3281 65.7633 79.9219C65.9195 79.5 65.9976 79.0781 65.9976 78.6562C65.9976 78.1875 65.8804 77.8359 65.6461 77.6016C65.4117 77.3516 65.1383 77.2266 64.8258 77.2266C64.4039 77.2266 64.0445 77.3438 63.7476 77.5781C63.4508 77.8125 63.2086 78.1172 63.0211 78.4922C62.8336 78.8672 62.6929 79.2891 62.5992 79.7578C62.5211 80.2109 62.482 80.6641 62.482 81.1172C62.482 81.3984 62.5054 81.6953 62.5523 82.0078C62.6148 82.3203 62.6851 82.6172 62.7633 82.8984ZM81.7863 84.8906C82.0363 84.375 82.3253 83.8125 82.6534 83.2031C82.9816 82.5781 83.3331 81.9531 83.7081 81.3281C84.0831 80.6875 84.4738 80.0547 84.88 79.4297C85.3019 78.8047 85.7394 78.2109 86.1925 77.6484C86.6456 77.1016 87.0988 76.7109 87.5519 76.4766C88.0206 76.2266 88.4581 76.1016 88.8644 76.1016C89.6769 76.1016 90.2784 76.3984 90.6691 76.9922C91.0597 77.5859 91.255 78.3203 91.255 79.1953C91.255 79.3984 91.2394 79.6484 91.2081 79.9453C91.1925 80.2266 91.1691 80.5312 91.1378 80.8594C91.1222 81.1875 91.0988 81.5234 91.0675 81.8672C91.0519 82.1953 91.0441 82.5078 91.0441 82.8047C91.0441 83.1797 91.0597 83.5391 91.0909 83.8828C91.1378 84.2266 91.2159 84.5312 91.3253 84.7969C91.4347 85.0469 91.5909 85.25 91.7941 85.4062C91.9972 85.5469 92.2628 85.6172 92.5909 85.6172C93.1847 85.6172 93.7628 85.3906 94.3253 84.9375C94.8878 84.4688 95.4034 83.9219 95.8722 83.2969C96.3566 82.6562 96.7706 82.0078 97.1144 81.3516C97.4738 80.6953 97.7394 80.1641 97.9113 79.7578C97.9894 79.5859 98.0988 79.4531 98.2394 79.3594C98.3956 79.2656 98.5597 79.2188 98.7316 79.2188C98.9972 79.2188 99.2081 79.3203 99.3644 79.5234C99.5363 79.7109 99.6222 79.9141 99.6222 80.1328C99.6222 80.2422 99.5988 80.3516 99.5519 80.4609C99.4894 80.5859 99.3644 80.8438 99.1769 81.2344C98.9894 81.625 98.7394 82.0781 98.4269 82.5938C98.13 83.0938 97.7784 83.6328 97.3722 84.2109C96.9659 84.7734 96.5128 85.2891 96.0128 85.7578C95.5284 86.2266 94.9972 86.6172 94.4191 86.9297C93.8566 87.2422 93.2628 87.3984 92.6378 87.3984C91.9347 87.3984 91.3644 87.2656 90.9269 87C90.4894 86.7188 90.1456 86.3594 89.8956 85.9219C89.6456 85.4688 89.4738 84.9766 89.38 84.4453C89.3019 83.8984 89.2628 83.3516 89.2628 82.8047C89.2628 82.5703 89.2706 82.3047 89.2863 82.0078C89.3175 81.7109 89.3488 81.3984 89.38 81.0703C89.4269 80.7422 89.4581 80.4141 89.4738 80.0859C89.505 79.7578 89.5206 79.4453 89.5206 79.1484C89.5206 78.6484 89.4425 78.3125 89.2863 78.1406C89.13 77.9531 88.9894 77.8594 88.8644 77.8594C88.6144 77.8594 88.3253 78.0078 87.9972 78.3047C87.6847 78.5859 87.3488 78.9609 86.9894 79.4297C86.6456 79.8984 86.2863 80.4297 85.9113 81.0234C85.5519 81.6016 85.2081 82.1797 84.88 82.7578C84.5675 83.3359 84.2706 83.8906 83.9894 84.4219C83.7238 84.9375 83.5128 85.3672 83.3566 85.7109C83.0441 86.3672 82.7316 86.8047 82.4191 87.0234C82.1066 87.2578 81.7863 87.375 81.4581 87.375C81.005 87.375 80.6378 87.2422 80.3566 86.9766C80.0909 86.6953 79.9581 86.3047 79.9581 85.8047C79.9581 85.6953 79.9738 85.4844 80.005 85.1719C80.0363 84.8438 80.0753 84.4609 80.1222 84.0234C80.1691 83.5703 80.2159 83.0859 80.2628 82.5703C80.3097 82.0547 80.3566 81.5469 80.4034 81.0469C80.4503 80.5312 80.4894 80.0547 80.5206 79.6172C80.5519 79.1797 80.5675 78.8125 80.5675 78.5156C80.5675 78.125 80.5519 77.75 80.5206 77.3906C80.4894 77.0312 80.4269 76.8125 80.3331 76.7344C80.1925 76.7812 79.9425 77.0781 79.5831 77.625C79.2238 78.1562 78.7628 79.1016 78.2003 80.4609C78.1222 80.6328 78.005 80.7656 77.8488 80.8594C77.6925 80.9531 77.5284 81 77.3566 81C77.0909 81 76.88 80.9141 76.7238 80.7422C76.5675 80.5547 76.4894 80.3438 76.4894 80.1094C76.4894 80 76.5128 79.8828 76.5597 79.7578C77.2628 78.0859 77.9191 76.8594 78.5284 76.0781C79.1534 75.2812 79.7706 74.8828 80.38 74.8828C80.7394 74.8828 81.0441 74.9766 81.2941 75.1641C81.5441 75.3359 81.7394 75.5703 81.88 75.8672C82.0363 76.1641 82.1456 76.4922 82.2081 76.8516C82.2863 77.2109 82.3253 77.5781 82.3253 77.9531C82.3253 78.2344 82.3019 78.6719 82.255 79.2656C82.2238 79.8594 82.1769 80.5 82.1144 81.1875C82.0519 81.8594 81.9894 82.5312 81.9269 83.2031C81.88 83.875 81.8331 84.4375 81.7863 84.8906ZM160.754 86.8828C160.817 86.9922 160.848 87.125 160.848 87.2812C160.848 87.5156 160.762 87.7188 160.59 87.8906C160.434 88.0625 160.223 88.1484 159.957 88.1484C159.785 88.1484 159.629 88.1094 159.489 88.0312C159.364 87.9531 159.262 87.8359 159.184 87.6797C158.887 87.1016 158.621 86.3828 158.387 85.5234C158.168 84.6484 157.973 83.6797 157.801 82.6172C157.645 81.5547 157.512 80.4141 157.403 79.1953C157.309 77.9609 157.231 76.6875 157.168 75.375C155.996 75.5312 154.676 75.7031 153.207 75.8906C151.754 76.0781 150.09 76.2969 148.215 76.5469C146.903 76.7344 145.567 76.8984 144.207 77.0391C140.864 80.6797 137.34 83.4453 133.637 85.3359C129.949 87.2109 126.246 88.1484 122.528 88.1484C120.871 88.1484 119.434 87.9844 118.215 87.6562C117.012 87.3438 116.012 86.9922 115.215 86.6016C114.434 86.1953 113.848 85.8203 113.457 85.4766C113.051 85.1328 112.832 84.9453 112.801 84.9141C112.645 84.7578 112.567 84.5547 112.567 84.3047C112.567 84.0547 112.653 83.8438 112.824 83.6719C112.996 83.5 113.199 83.4141 113.434 83.4141C113.699 83.4141 113.918 83.5078 114.09 83.6953C114.121 83.7266 114.309 83.8906 114.653 84.1875C114.996 84.4688 115.504 84.7734 116.176 85.1016C116.864 85.4297 117.731 85.7266 118.778 85.9922C119.824 86.2578 121.067 86.3906 122.504 86.3906C124.473 86.3906 126.356 86.125 128.153 85.5938C129.949 85.0625 131.645 84.375 133.239 83.5312C134.848 82.6719 136.34 81.6953 137.715 80.6016C139.106 79.5078 140.364 78.3984 141.489 77.2734C140.379 77.3672 139.278 77.4375 138.184 77.4844C137.09 77.5312 136.012 77.5547 134.949 77.5547C132.856 77.5547 130.864 77.4375 128.973 77.2031C127.082 76.9688 125.418 76.5781 123.981 76.0312C122.543 75.4688 121.395 74.7266 120.535 73.8047C119.692 72.8828 119.27 71.7344 119.27 70.3594C119.27 69.7344 119.395 69.1094 119.645 68.4844C119.91 67.8594 120.223 67.2969 120.582 66.7969C120.942 66.2812 121.317 65.8672 121.707 65.5547C122.098 65.2266 122.434 65.0625 122.715 65.0625C122.934 65.0625 123.137 65.1406 123.324 65.2969C123.512 65.4531 123.606 65.6641 123.606 65.9297C123.606 66.0703 123.574 66.2109 123.512 66.3516C123.449 66.4766 123.356 66.5781 123.231 66.6562C123.199 66.6875 123.067 66.7969 122.832 66.9844C122.598 67.1719 122.348 67.4297 122.082 67.7578C121.817 68.0703 121.574 68.4531 121.356 68.9062C121.137 69.3438 121.028 69.8203 121.028 70.3359C121.028 71.2266 121.332 72.0156 121.942 72.7031C122.567 73.375 123.465 73.9453 124.637 74.4141C125.824 74.8672 127.278 75.2109 128.996 75.4453C130.715 75.6797 132.676 75.7969 134.879 75.7969C136.145 75.7969 137.481 75.7578 138.887 75.6797C140.293 75.6016 141.778 75.4844 143.34 75.3281C144.09 74.5 144.754 73.7188 145.332 72.9844C145.91 72.25 146.403 71.5938 146.809 71.0156C147.481 70.0625 148.184 69.0469 148.918 67.9688C149.653 66.8906 150.379 65.7969 151.098 64.6875C151.832 63.5781 152.543 62.4844 153.231 61.4062C153.934 60.3125 154.59 59.2891 155.199 58.3359C155.809 57.3672 156.356 56.4922 156.84 55.7109C157.324 54.9141 157.723 54.2578 158.035 53.7422C158.129 53.3203 158.27 52.9375 158.457 52.5938C158.645 52.2344 158.949 52.0547 159.371 52.0547C159.606 52.0547 159.832 52.1562 160.051 52.3594C160.27 52.5469 160.379 52.7891 160.379 53.0859C160.379 53.3047 160.301 53.5391 160.145 53.7891C159.989 54.0391 159.84 54.25 159.699 54.4219C159.653 54.7188 159.574 55.3516 159.465 56.3203C159.371 57.2891 159.27 58.4766 159.16 59.8828C159.067 61.2734 158.981 62.8125 158.903 64.5C158.84 66.1719 158.809 67.8672 158.809 69.5859C158.809 70.2266 158.809 70.8594 158.809 71.4844C158.809 72.1094 158.824 72.7422 158.856 73.3828C161.199 73.0859 162.91 72.8828 163.989 72.7734C165.067 72.6484 165.637 72.5859 165.699 72.5859C165.903 72.5859 166.098 72.6719 166.285 72.8438C166.489 73 166.59 73.2109 166.59 73.4766C166.59 73.6953 166.512 73.8906 166.356 74.0625C166.215 74.2188 166.028 74.3125 165.793 74.3438C165.512 74.375 165.184 74.4141 164.809 74.4609C164.434 74.5078 163.973 74.5625 163.426 74.625C162.879 74.6875 162.239 74.7656 161.504 74.8594C160.77 74.9375 159.91 75.0391 158.926 75.1641C158.973 76.4453 159.043 77.6797 159.137 78.8672C159.246 80.0391 159.371 81.1328 159.512 82.1484C159.668 83.1641 159.848 84.0781 160.051 84.8906C160.254 85.7031 160.489 86.3672 160.754 86.8828ZM147.981 74.7891C149.824 74.5391 151.496 74.3203 152.996 74.1328C154.512 73.9297 155.879 73.75 157.098 73.5938C157.082 72.9219 157.067 72.25 157.051 71.5781C157.051 70.9062 157.051 70.2266 157.051 69.5391C157.051 67.3359 157.09 65.2344 157.168 63.2344C157.246 61.2188 157.356 59.4688 157.496 57.9844C156.871 58.9688 156.176 60.0625 155.41 61.2656C154.66 62.4531 153.879 63.6719 153.067 64.9219C152.254 66.1562 151.434 67.3828 150.606 68.6016C149.778 69.8203 148.989 70.9609 148.239 72.0234C147.864 72.5547 147.481 73.0703 147.09 73.5703C146.699 74.0703 146.309 74.5625 145.918 75.0469C146.262 75.0156 146.598 74.9766 146.926 74.9297C147.27 74.8828 147.621 74.8359 147.981 74.7891ZM174.715 84.8906C174.965 84.375 175.254 83.8125 175.582 83.2031C175.91 82.5781 176.262 81.9531 176.637 81.3281C177.012 80.6875 177.402 80.0547 177.808 79.4297C178.23 78.8047 178.668 78.2109 179.121 77.6484C179.574 77.1016 180.027 76.7109 180.48 76.4766C180.949 76.2266 181.387 76.1016 181.793 76.1016C182.605 76.1016 183.207 76.3984 183.597 76.9922C183.988 77.5859 184.183 78.3203 184.183 79.1953C184.183 79.3984 184.168 79.6484 184.137 79.9453C184.121 80.2266 184.097 80.5312 184.066 80.8594C184.051 81.1875 184.027 81.5234 183.996 81.8672C183.98 82.1953 183.972 82.5078 183.972 82.8047C183.972 83.1797 183.988 83.5391 184.019 83.8828C184.066 84.2266 184.144 84.5312 184.254 84.7969C184.363 85.0469 184.519 85.25 184.722 85.4062C184.926 85.5469 185.191 85.6172 185.519 85.6172C186.113 85.6172 186.691 85.3906 187.254 84.9375C187.816 84.4688 188.332 83.9219 188.801 83.2969C189.285 82.6562 189.699 82.0078 190.043 81.3516C190.402 80.6953 190.668 80.1641 190.84 79.7578C190.918 79.5859 191.027 79.4531 191.168 79.3594C191.324 79.2656 191.488 79.2188 191.66 79.2188C191.926 79.2188 192.137 79.3203 192.293 79.5234C192.465 79.7109 192.551 79.9141 192.551 80.1328C192.551 80.2422 192.527 80.3516 192.48 80.4609C192.418 80.5859 192.293 80.8438 192.105 81.2344C191.918 81.625 191.668 82.0781 191.355 82.5938C191.058 83.0938 190.707 83.6328 190.301 84.2109C189.894 84.7734 189.441 85.2891 188.941 85.7578C188.457 86.2266 187.926 86.6172 187.347 86.9297C186.785 87.2422 186.191 87.3984 185.566 87.3984C184.863 87.3984 184.293 87.2656 183.855 87C183.418 86.7188 183.074 86.3594 182.824 85.9219C182.574 85.4688 182.402 84.9766 182.308 84.4453C182.23 83.8984 182.191 83.3516 182.191 82.8047C182.191 82.5703 182.199 82.3047 182.215 82.0078C182.246 81.7109 182.277 81.3984 182.308 81.0703C182.355 80.7422 182.387 80.4141 182.402 80.0859C182.433 79.7578 182.449 79.4453 182.449 79.1484C182.449 78.6484 182.371 78.3125 182.215 78.1406C182.058 77.9531 181.918 77.8594 181.793 77.8594C181.543 77.8594 181.254 78.0078 180.926 78.3047C180.613 78.5859 180.277 78.9609 179.918 79.4297C179.574 79.8984 179.215 80.4297 178.84 81.0234C178.48 81.6016 178.137 82.1797 177.808 82.7578C177.496 83.3359 177.199 83.8906 176.918 84.4219C176.652 84.9375 176.441 85.3672 176.285 85.7109C175.972 86.3672 175.66 86.8047 175.347 87.0234C175.035 87.2578 174.715 87.375 174.387 87.375C173.933 87.375 173.566 87.2422 173.285 86.9766C173.019 86.6953 172.887 86.3047 172.887 85.8047C172.887 85.6953 172.902 85.4844 172.933 85.1719C172.965 84.8438 173.004 84.4609 173.051 84.0234C173.097 83.5703 173.144 83.0859 173.191 82.5703C173.238 82.0547 173.285 81.5469 173.332 81.0469C173.379 80.5312 173.418 80.0547 173.449 79.6172C173.48 79.1797 173.496 78.8125 173.496 78.5156C173.496 78.125 173.48 77.75 173.449 77.3906C173.418 77.0312 173.355 76.8125 173.262 76.7344C173.121 76.7812 172.871 77.0781 172.512 77.625C172.152 78.1562 171.691 79.1016 171.129 80.4609C171.051 80.6328 170.933 80.7656 170.777 80.8594C170.621 80.9531 170.457 81 170.285 81C170.019 81 169.808 80.9141 169.652 80.7422C169.496 80.5547 169.418 80.3438 169.418 80.1094C169.418 80 169.441 79.8828 169.488 79.7578C170.191 78.0859 170.847 76.8594 171.457 76.0781C172.082 75.2812 172.699 74.8828 173.308 74.8828C173.668 74.8828 173.972 74.9766 174.222 75.1641C174.472 75.3359 174.668 75.5703 174.808 75.8672C174.965 76.1641 175.074 76.4922 175.137 76.8516C175.215 77.2109 175.254 77.5781 175.254 77.9531C175.254 78.2344 175.23 78.6719 175.183 79.2656C175.152 79.8594 175.105 80.5 175.043 81.1875C174.98 81.8594 174.918 82.5312 174.855 83.2031C174.808 83.875 174.762 84.4375 174.715 84.8906ZM196.386 85.0078C196.636 84.4766 196.925 83.9062 197.253 83.2969C197.581 82.6719 197.933 82.0391 198.308 81.3984C198.683 80.7422 199.081 80.0938 199.503 79.4531C199.925 78.8125 200.363 78.2109 200.816 77.6484C201.269 77.1016 201.722 76.7109 202.175 76.4766C202.644 76.2266 203.081 76.1016 203.488 76.1016C203.894 76.1016 204.245 76.1875 204.542 76.3594C204.855 76.5156 205.105 76.7344 205.292 77.0156C205.495 77.2969 205.644 77.625 205.738 78C205.847 78.375 205.902 78.7812 205.902 79.2188C205.902 79.5781 205.863 80.0625 205.785 80.6719C205.722 81.2656 205.691 81.8906 205.691 82.5469C205.691 82.9219 205.706 83.2969 205.738 83.6719C205.785 84.0312 205.855 84.3594 205.949 84.6562C206.058 84.9375 206.214 85.1719 206.417 85.3594C206.62 85.5312 206.886 85.6172 207.214 85.6172C207.589 85.6172 207.964 85.5156 208.339 85.3125C208.714 85.0938 209.081 84.8125 209.441 84.4688C209.8 84.1094 210.144 83.7188 210.472 83.2969C210.8 82.8594 211.097 82.4297 211.363 82.0078C211.628 81.5703 211.863 81.1562 212.066 80.7656C212.269 80.3594 212.433 80.0234 212.558 79.7578C212.714 79.3984 212.988 79.2188 213.378 79.2188C213.644 79.2188 213.855 79.3125 214.011 79.5C214.167 79.6875 214.245 79.8906 214.245 80.1094C214.245 80.2344 214.222 80.3516 214.175 80.4609C214.113 80.5859 213.988 80.8438 213.8 81.2344C213.628 81.625 213.386 82.0781 213.074 82.5938C212.777 83.1094 212.425 83.6484 212.019 84.2109C211.613 84.7734 211.16 85.2969 210.66 85.7812C210.175 86.25 209.644 86.6406 209.066 86.9531C208.503 87.25 207.91 87.3984 207.285 87.3984C206.566 87.3984 205.988 87.25 205.55 86.9531C205.113 86.6406 204.769 86.25 204.519 85.7812C204.285 85.3125 204.12 84.7891 204.027 84.2109C203.949 83.6328 203.91 83.0703 203.91 82.5234C203.91 82.2422 203.917 81.9453 203.933 81.6328C203.964 81.3047 203.995 80.9844 204.027 80.6719C204.058 80.3594 204.081 80.0703 204.097 79.8047C204.128 79.5234 204.144 79.2891 204.144 79.1016C204.144 78.6172 204.074 78.2891 203.933 78.1172C203.808 77.9453 203.66 77.8594 203.488 77.8594C203.238 77.8594 202.949 78.0078 202.62 78.3047C202.308 78.5859 201.972 78.9609 201.613 79.4297C201.269 79.8984 200.917 80.4297 200.558 81.0234C200.214 81.6016 199.878 82.1797 199.55 82.7578C199.222 83.3359 198.925 83.8906 198.66 84.4219C198.394 84.9375 198.175 85.3672 198.003 85.7109C197.675 86.3672 197.339 86.8047 196.995 87.0234C196.667 87.2578 196.37 87.375 196.105 87.375C195.62 87.375 195.245 87.1875 194.98 86.8125C194.73 86.4219 194.605 85.9531 194.605 85.4062V83.9297C194.605 80.9766 194.605 78.1641 194.605 75.4922C194.62 72.8047 194.66 70.3125 194.722 68.0156C194.8 65.7031 194.917 63.6172 195.074 61.7578C195.245 59.8828 195.495 58.2891 195.824 56.9766C196.152 55.6484 196.566 54.625 197.066 53.9062C197.581 53.1875 198.222 52.8281 198.988 52.8281C199.644 52.8281 200.199 53.0078 200.652 53.3672C201.105 53.7266 201.472 54.2188 201.753 54.8438C202.035 55.4531 202.238 56.1719 202.363 57C202.488 57.8125 202.55 58.6719 202.55 59.5781C202.55 61.4219 202.378 63.2344 202.035 65.0156C201.706 66.7812 201.261 68.5078 200.699 70.1953C200.136 71.8828 199.48 73.5312 198.73 75.1406C197.98 76.7344 197.191 78.2891 196.363 79.8047C196.363 80.0859 196.363 80.4219 196.363 80.8125C196.363 81.2031 196.363 81.5938 196.363 81.9844C196.363 82.375 196.363 82.7422 196.363 83.0859C196.363 83.4297 196.363 83.7031 196.363 83.9062L196.386 85.0078ZM196.386 76.3594C197.042 74.9219 197.636 73.5234 198.167 72.1641C198.714 70.7891 199.175 69.4219 199.55 68.0625C199.941 66.7031 200.245 65.3281 200.464 63.9375C200.683 62.5312 200.792 61.0703 200.792 59.5547C200.792 59.3047 200.777 58.9062 200.745 58.3594C200.73 57.8125 200.66 57.2578 200.535 56.6953C200.425 56.1328 200.245 55.6406 199.995 55.2188C199.761 54.7969 199.425 54.5859 198.988 54.5859C198.644 54.5859 198.347 54.8203 198.097 55.2891C197.847 55.7422 197.628 56.3672 197.441 57.1641C197.253 57.9453 197.097 58.8594 196.972 59.9062C196.847 60.9531 196.745 62.0625 196.667 63.2344C196.589 64.4062 196.527 65.6094 196.48 66.8438C196.449 68.0781 196.425 69.2812 196.41 70.4531C196.394 71.6094 196.386 72.6953 196.386 73.7109C196.386 74.7266 196.386 75.6094 196.386 76.3594ZM271.721 83.1797C271.706 83.2109 271.612 83.3438 271.44 83.5781C271.268 83.8125 271.018 84.1016 270.69 84.4453C270.377 84.7734 269.979 85.1328 269.495 85.5234C269.026 85.8984 268.463 86.25 267.807 86.5781C267.166 86.8906 266.44 87.1562 265.627 87.375C264.815 87.5938 263.916 87.7031 262.932 87.7031C261.401 87.7031 259.963 87.5078 258.62 87.1172C257.276 86.7422 255.979 86.2578 254.729 85.6641C253.495 85.0703 252.276 84.4141 251.073 83.6953C249.87 82.9766 248.643 82.2734 247.393 81.5859C246.627 82.8672 245.745 83.9141 244.745 84.7266C243.76 85.5234 242.729 86.1484 241.651 86.6016C240.588 87.0547 239.526 87.3594 238.463 87.5156C237.416 87.6875 236.448 87.7734 235.557 87.7734C234.698 87.7734 233.823 87.6797 232.932 87.4922C232.057 87.3203 231.26 87.0312 230.541 86.625C229.838 86.2031 229.26 85.6562 228.807 84.9844C228.354 84.3125 228.127 83.4766 228.127 82.4766C228.127 81.5391 228.346 80.6953 228.784 79.9453C229.206 79.1797 229.791 78.5312 230.541 78C231.307 77.4688 232.206 77.0625 233.237 76.7812C234.268 76.4844 235.377 76.3359 236.565 76.3359C237.456 76.3359 238.338 76.4141 239.213 76.5703C240.104 76.7266 240.971 76.9375 241.815 77.2031C242.659 77.4688 243.479 77.7734 244.276 78.1172C245.073 78.4453 245.823 78.7812 246.526 79.125C246.62 78.8438 246.698 78.5625 246.76 78.2812C246.838 78 246.901 77.6953 246.948 77.3672C247.01 77.0234 247.049 76.6484 247.065 76.2422C247.096 75.8203 247.112 75.3359 247.112 74.7891C247.112 74.2734 247.096 73.7812 247.065 73.3125C247.049 72.8438 247.026 72.3359 246.995 71.7891C246.979 71.2266 246.956 70.6016 246.924 69.9141C246.909 69.2109 246.901 68.375 246.901 67.4062C246.901 65.1719 247.12 63.1406 247.557 61.3125C247.995 59.4688 248.643 57.8906 249.502 56.5781C250.362 55.2656 251.432 54.25 252.713 53.5312C253.995 52.7969 255.487 52.4297 257.19 52.4297C258.221 52.4297 259.198 52.5938 260.12 52.9219C261.057 53.25 261.877 53.7188 262.581 54.3281C263.299 54.9375 263.862 55.6641 264.268 56.5078C264.69 57.3516 264.901 58.2891 264.901 59.3203C264.901 59.8828 264.823 60.4688 264.666 61.0781C264.51 61.6875 264.291 62.25 264.01 62.7656C263.745 63.2656 263.432 63.6797 263.073 64.0078C262.729 64.3359 262.362 64.5 261.971 64.5C261.752 64.5 261.557 64.4375 261.385 64.3125C261.213 64.1875 261.127 63.9922 261.127 63.7266C261.127 63.5391 261.166 63.3828 261.245 63.2578C261.338 63.1172 261.448 62.9922 261.573 62.8828C262.026 62.4766 262.393 61.9766 262.674 61.3828C262.971 60.7891 263.12 60.1016 263.12 59.3203C263.12 58.5391 262.956 57.8359 262.627 57.2109C262.315 56.5703 261.885 56.0312 261.338 55.5938C260.807 55.1406 260.182 54.7969 259.463 54.5625C258.76 54.3125 258.018 54.1875 257.237 54.1875C255.768 54.1875 254.495 54.5078 253.416 55.1484C252.338 55.7891 251.448 56.6953 250.745 57.8672C250.041 59.0234 249.518 60.4297 249.174 62.0859C248.846 63.7266 248.682 65.5547 248.682 67.5703C248.682 68.5391 248.69 69.3906 248.706 70.125C248.737 70.8594 248.76 71.5312 248.776 72.1406C248.807 72.75 248.831 73.3281 248.846 73.875C248.877 74.4062 248.893 74.9531 248.893 75.5156C248.893 75.8438 248.877 76.2031 248.846 76.5938C248.815 76.9688 248.768 77.3594 248.706 77.7656C248.643 78.1562 248.557 78.5469 248.448 78.9375C248.354 79.3125 248.245 79.6562 248.12 79.9688C249.307 80.5938 250.479 81.2578 251.635 81.9609C252.791 82.6641 253.963 83.3125 255.151 83.9062C256.354 84.4844 257.588 84.9688 258.854 85.3594C260.135 85.7344 261.487 85.9219 262.909 85.9219C264.159 85.9219 265.237 85.7344 266.143 85.3594C267.065 84.9844 267.823 84.5703 268.416 84.1172C269.026 83.6484 269.479 83.2266 269.776 82.8516C270.073 82.4609 270.221 82.2578 270.221 82.2422C270.393 81.9609 270.643 81.8203 270.971 81.8203C271.237 81.8203 271.448 81.9141 271.604 82.1016C271.776 82.2891 271.862 82.4922 271.862 82.7109C271.862 82.8828 271.815 83.0391 271.721 83.1797ZM245.846 80.7188C245.174 80.3906 244.463 80.0703 243.713 79.7578C242.979 79.4297 242.221 79.1406 241.44 78.8906C240.659 78.6406 239.854 78.4453 239.026 78.3047C238.213 78.1484 237.401 78.0703 236.588 78.0703C235.666 78.0703 234.799 78.1719 233.987 78.375C233.174 78.5625 232.463 78.8438 231.854 79.2188C231.245 79.5938 230.76 80.0469 230.401 80.5781C230.057 81.1094 229.885 81.7109 229.885 82.3828C229.885 83.0078 230.041 83.5547 230.354 84.0234C230.666 84.4766 231.081 84.8594 231.596 85.1719C232.127 85.4688 232.737 85.6953 233.424 85.8516C234.112 85.9922 234.831 86.0625 235.581 86.0625C236.487 86.0625 237.424 85.9922 238.393 85.8516C239.362 85.6953 240.299 85.4219 241.206 85.0312C242.112 84.625 242.963 84.0781 243.76 83.3906C244.557 82.6875 245.252 81.7969 245.846 80.7188ZM285.119 84.375C284.572 85.2656 283.932 85.9688 283.197 86.4844C282.479 87 281.752 87.2578 281.018 87.2578C280.424 87.2578 279.893 87.1484 279.424 86.9297C278.955 86.7109 278.549 86.4062 278.205 86.0156C277.861 85.6094 277.596 85.125 277.408 84.5625C277.236 84 277.15 83.3672 277.15 82.6641C277.15 81.5703 277.252 80.6016 277.455 79.7578C277.674 78.9141 277.908 78.2109 278.158 77.6484C278.408 77.0703 278.643 76.6328 278.861 76.3359C279.08 76.0391 279.189 75.8906 279.189 75.8906C279.268 75.7969 279.361 75.7266 279.471 75.6797C279.596 75.6328 279.721 75.6094 279.846 75.6094C280.096 75.6094 280.299 75.7031 280.455 75.8906C280.627 76.0625 280.713 76.2656 280.713 76.5C280.713 76.5938 280.689 76.6875 280.643 76.7812C280.611 76.875 280.572 76.9688 280.525 77.0625C280.447 77.2031 280.322 77.4219 280.15 77.7188C279.979 78 279.799 78.375 279.611 78.8438C279.424 79.3125 279.26 79.8672 279.119 80.5078C278.979 81.1328 278.908 81.8516 278.908 82.6641C278.908 83.5859 279.088 84.2891 279.447 84.7734C279.822 85.2422 280.346 85.4766 281.018 85.4766C281.299 85.4766 281.619 85.3906 281.979 85.2188C282.354 85.0312 282.713 84.75 283.057 84.375C283.416 84 283.729 83.5234 283.994 82.9453C284.26 82.3672 284.432 81.6875 284.51 80.9062L284.861 76.875C284.893 76.6406 284.994 76.4453 285.166 76.2891C285.338 76.1328 285.541 76.0547 285.775 76.0547C286.041 76.0547 286.252 76.1562 286.408 76.3594C286.564 76.5469 286.643 76.7656 286.643 77.0156L286.338 80.9062C286.307 81.2344 286.314 81.6641 286.361 82.1953C286.424 82.7266 286.541 83.25 286.713 83.7656C286.885 84.2812 287.143 84.7266 287.486 85.1016C287.83 85.4609 288.283 85.6406 288.846 85.6406C289.252 85.6406 289.65 85.5391 290.041 85.3359C290.432 85.1172 290.807 84.8359 291.166 84.4922C291.525 84.1484 291.854 83.7656 292.15 83.3438C292.463 82.9062 292.744 82.4688 292.994 82.0312C293.26 81.5938 293.486 81.1797 293.674 80.7891C293.861 80.3828 294.018 80.0391 294.143 79.7578C294.221 79.5859 294.33 79.4531 294.471 79.3594C294.611 79.2656 294.768 79.2188 294.939 79.2188C295.221 79.2188 295.439 79.3125 295.596 79.5C295.752 79.6875 295.83 79.8906 295.83 80.1094C295.83 80.2344 295.807 80.3516 295.76 80.4609C295.697 80.5859 295.572 80.8516 295.385 81.2578C295.213 81.6484 294.979 82.1016 294.682 82.6172C294.4 83.1172 294.057 83.6484 293.65 84.2109C293.244 84.7734 292.791 85.2969 292.291 85.7812C291.791 86.25 291.244 86.6406 290.65 86.9531C290.072 87.25 289.447 87.3984 288.775 87.3984C287.854 87.3984 287.088 87.1406 286.479 86.625C285.869 86.0938 285.416 85.3438 285.119 84.375ZM305.595 84.375C305.048 85.2656 304.408 85.9688 303.673 86.4844C302.955 87 302.228 87.2578 301.494 87.2578C300.9 87.2578 300.369 87.1484 299.9 86.9297C299.431 86.7109 299.025 86.4062 298.681 86.0156C298.337 85.6094 298.072 85.125 297.884 84.5625C297.712 84 297.626 83.3672 297.626 82.6641C297.626 81.5703 297.728 80.6016 297.931 79.7578C298.15 78.9141 298.384 78.2109 298.634 77.6484C298.884 77.0703 299.119 76.6328 299.337 76.3359C299.556 76.0391 299.666 75.8906 299.666 75.8906C299.744 75.7969 299.837 75.7266 299.947 75.6797C300.072 75.6328 300.197 75.6094 300.322 75.6094C300.572 75.6094 300.775 75.7031 300.931 75.8906C301.103 76.0625 301.189 76.2656 301.189 76.5C301.189 76.5938 301.166 76.6875 301.119 76.7812C301.087 76.875 301.048 76.9688 301.001 77.0625C300.923 77.2031 300.798 77.4219 300.626 77.7188C300.455 78 300.275 78.375 300.087 78.8438C299.9 79.3125 299.736 79.8672 299.595 80.5078C299.455 81.1328 299.384 81.8516 299.384 82.6641C299.384 83.5859 299.564 84.2891 299.923 84.7734C300.298 85.2422 300.822 85.4766 301.494 85.4766C301.775 85.4766 302.095 85.3906 302.455 85.2188C302.83 85.0312 303.189 84.75 303.533 84.375C303.892 84 304.205 83.5234 304.47 82.9453C304.736 82.3672 304.908 81.6875 304.986 80.9062L305.337 76.875C305.369 76.6406 305.47 76.4453 305.642 76.2891C305.814 76.1328 306.017 76.0547 306.251 76.0547C306.517 76.0547 306.728 76.1562 306.884 76.3594C307.041 76.5469 307.119 76.7656 307.119 77.0156L306.814 80.9062C306.783 81.2344 306.791 81.6641 306.837 82.1953C306.9 82.7266 307.017 83.25 307.189 83.7656C307.361 84.2812 307.619 84.7266 307.962 85.1016C308.306 85.4609 308.759 85.6406 309.322 85.6406C309.728 85.6406 310.126 85.5391 310.517 85.3359C310.908 85.1172 311.283 84.8359 311.642 84.4922C312.001 84.1484 312.33 83.7656 312.626 83.3438C312.939 82.9062 313.22 82.4688 313.47 82.0312C313.736 81.5938 313.962 81.1797 314.15 80.7891C314.337 80.3828 314.494 80.0391 314.619 79.7578C314.697 79.5859 314.806 79.4531 314.947 79.3594C315.087 79.2656 315.244 79.2188 315.416 79.2188C315.697 79.2188 315.916 79.3125 316.072 79.5C316.228 79.6875 316.306 79.8906 316.306 80.1094C316.306 80.2344 316.283 80.3516 316.236 80.4609C316.173 80.5859 316.048 80.8516 315.861 81.2578C315.689 81.6484 315.455 82.1016 315.158 82.6172C314.876 83.1172 314.533 83.6484 314.126 84.2109C313.72 84.7734 313.267 85.2969 312.767 85.7812C312.267 86.25 311.72 86.6406 311.126 86.9531C310.548 87.25 309.923 87.3984 309.251 87.3984C308.33 87.3984 307.564 87.1406 306.955 86.625C306.345 86.0938 305.892 85.3438 305.595 84.375Z" fill="black"/>
</svg>
